<mxfile host="app.diagrams.net" modified="2023-03-31T09:10:00.654Z" agent="Mozilla/5.0 (Windows NT 10.0; Win64; x64; rv:109.0) Gecko/20100101 Firefox/111.0" etag="BUK4pyWhycOdnwc4BEyH" version="21.1.2" type="github">
  <diagram name="Sida-1" id="5NmmJ4zWJMRVM2KTanQx">
    <mxGraphModel dx="1289" dy="838" grid="1" gridSize="10" guides="1" tooltips="1" connect="1" arrows="1" fold="1" page="1" pageScale="1" pageWidth="1169" pageHeight="827" math="0" shadow="0">
      <root>
        <mxCell id="0" />
        <mxCell id="1" parent="0" />
        <mxCell id="TbbYldWpjWwdcko0ZbVV-75" value="" style="rounded=0;whiteSpace=wrap;html=1;fillColor=none;" vertex="1" parent="1">
          <mxGeometry x="60" y="160" width="1010" height="130" as="geometry" />
        </mxCell>
        <mxCell id="TbbYldWpjWwdcko0ZbVV-40" value="" style="ellipse;whiteSpace=wrap;html=1;aspect=fixed;fillStyle=dashed;fillColor=#000000;" vertex="1" parent="1">
          <mxGeometry x="250" y="199" width="40" height="40" as="geometry" />
        </mxCell>
        <mxCell id="TbbYldWpjWwdcko0ZbVV-41" value="" style="ellipse;whiteSpace=wrap;html=1;aspect=fixed;fillStyle=dashed;fillColor=#000000;" vertex="1" parent="1">
          <mxGeometry x="420" y="199" width="40" height="40" as="geometry" />
        </mxCell>
        <mxCell id="TbbYldWpjWwdcko0ZbVV-42" value="" style="ellipse;whiteSpace=wrap;html=1;aspect=fixed;fillStyle=dashed;fillColor=#000000;" vertex="1" parent="1">
          <mxGeometry x="640" y="199" width="40" height="40" as="geometry" />
        </mxCell>
        <mxCell id="TbbYldWpjWwdcko0ZbVV-43" value="" style="ellipse;whiteSpace=wrap;html=1;aspect=fixed;fillStyle=dashed;fillColor=#000000;" vertex="1" parent="1">
          <mxGeometry x="900" y="199" width="40" height="40" as="geometry" />
        </mxCell>
        <mxCell id="TbbYldWpjWwdcko0ZbVV-45" value="" style="ellipse;whiteSpace=wrap;html=1;aspect=fixed;" vertex="1" parent="1">
          <mxGeometry x="280" y="90" width="40" height="40" as="geometry" />
        </mxCell>
        <mxCell id="TbbYldWpjWwdcko0ZbVV-46" value="" style="ellipse;whiteSpace=wrap;html=1;aspect=fixed;fillStyle=dashed;fillColor=#000000;" vertex="1" parent="1">
          <mxGeometry x="80" y="90" width="40" height="40" as="geometry" />
        </mxCell>
        <mxCell id="TbbYldWpjWwdcko0ZbVV-47" value="" style="ellipse;whiteSpace=wrap;html=1;aspect=fixed;fillStyle=dashed;fillColor=#000000;" vertex="1" parent="1">
          <mxGeometry x="180" y="90" width="40" height="40" as="geometry" />
        </mxCell>
        <mxCell id="TbbYldWpjWwdcko0ZbVV-48" value="" style="ellipse;whiteSpace=wrap;html=1;aspect=fixed;fillStyle=dashed;fillColor=#000000;" vertex="1" parent="1">
          <mxGeometry x="230" y="90" width="40" height="40" as="geometry" />
        </mxCell>
        <mxCell id="TbbYldWpjWwdcko0ZbVV-49" value="" style="ellipse;whiteSpace=wrap;html=1;aspect=fixed;" vertex="1" parent="1">
          <mxGeometry x="280" y="40" width="40" height="40" as="geometry" />
        </mxCell>
        <mxCell id="TbbYldWpjWwdcko0ZbVV-50" value="" style="ellipse;whiteSpace=wrap;html=1;aspect=fixed;" vertex="1" parent="1">
          <mxGeometry x="80" y="40" width="40" height="40" as="geometry" />
        </mxCell>
        <mxCell id="TbbYldWpjWwdcko0ZbVV-51" value="" style="ellipse;whiteSpace=wrap;html=1;aspect=fixed;" vertex="1" parent="1">
          <mxGeometry x="330" y="40" width="40" height="40" as="geometry" />
        </mxCell>
        <mxCell id="TbbYldWpjWwdcko0ZbVV-52" value="" style="ellipse;whiteSpace=wrap;html=1;aspect=fixed;" vertex="1" parent="1">
          <mxGeometry x="330" y="90" width="40" height="40" as="geometry" />
        </mxCell>
        <mxCell id="TbbYldWpjWwdcko0ZbVV-53" value="" style="ellipse;whiteSpace=wrap;html=1;aspect=fixed;" vertex="1" parent="1">
          <mxGeometry x="500" y="90" width="40" height="40" as="geometry" />
        </mxCell>
        <mxCell id="TbbYldWpjWwdcko0ZbVV-54" value="" style="ellipse;whiteSpace=wrap;html=1;aspect=fixed;fillStyle=dashed;fillColor=#000000;" vertex="1" parent="1">
          <mxGeometry x="400" y="90" width="40" height="40" as="geometry" />
        </mxCell>
        <mxCell id="TbbYldWpjWwdcko0ZbVV-55" value="" style="ellipse;whiteSpace=wrap;html=1;aspect=fixed;fillStyle=dashed;fillColor=#000000;" vertex="1" parent="1">
          <mxGeometry x="450" y="90" width="40" height="40" as="geometry" />
        </mxCell>
        <mxCell id="TbbYldWpjWwdcko0ZbVV-56" value="" style="ellipse;whiteSpace=wrap;html=1;aspect=fixed;" vertex="1" parent="1">
          <mxGeometry x="500" y="40" width="40" height="40" as="geometry" />
        </mxCell>
        <mxCell id="TbbYldWpjWwdcko0ZbVV-57" value="" style="ellipse;whiteSpace=wrap;html=1;aspect=fixed;" vertex="1" parent="1">
          <mxGeometry x="550" y="40" width="40" height="40" as="geometry" />
        </mxCell>
        <mxCell id="TbbYldWpjWwdcko0ZbVV-58" value="" style="ellipse;whiteSpace=wrap;html=1;aspect=fixed;" vertex="1" parent="1">
          <mxGeometry x="550" y="90" width="40" height="40" as="geometry" />
        </mxCell>
        <mxCell id="TbbYldWpjWwdcko0ZbVV-59" value="" style="ellipse;whiteSpace=wrap;html=1;aspect=fixed;" vertex="1" parent="1">
          <mxGeometry x="730" y="90" width="40" height="40" as="geometry" />
        </mxCell>
        <mxCell id="TbbYldWpjWwdcko0ZbVV-60" value="" style="ellipse;whiteSpace=wrap;html=1;aspect=fixed;fillStyle=dashed;fillColor=#000000;" vertex="1" parent="1">
          <mxGeometry x="630" y="90" width="40" height="40" as="geometry" />
        </mxCell>
        <mxCell id="TbbYldWpjWwdcko0ZbVV-61" value="" style="ellipse;whiteSpace=wrap;html=1;aspect=fixed;fillStyle=dashed;fillColor=#000000;" vertex="1" parent="1">
          <mxGeometry x="680" y="90" width="40" height="40" as="geometry" />
        </mxCell>
        <mxCell id="TbbYldWpjWwdcko0ZbVV-62" value="" style="ellipse;whiteSpace=wrap;html=1;aspect=fixed;" vertex="1" parent="1">
          <mxGeometry x="730" y="40" width="40" height="40" as="geometry" />
        </mxCell>
        <mxCell id="TbbYldWpjWwdcko0ZbVV-63" value="" style="ellipse;whiteSpace=wrap;html=1;aspect=fixed;" vertex="1" parent="1">
          <mxGeometry x="780" y="40" width="40" height="40" as="geometry" />
        </mxCell>
        <mxCell id="TbbYldWpjWwdcko0ZbVV-64" value="" style="ellipse;whiteSpace=wrap;html=1;aspect=fixed;" vertex="1" parent="1">
          <mxGeometry x="780" y="90" width="40" height="40" as="geometry" />
        </mxCell>
        <mxCell id="TbbYldWpjWwdcko0ZbVV-65" value="" style="ellipse;whiteSpace=wrap;html=1;aspect=fixed;" vertex="1" parent="1">
          <mxGeometry x="950" y="90" width="40" height="40" as="geometry" />
        </mxCell>
        <mxCell id="TbbYldWpjWwdcko0ZbVV-66" value="" style="ellipse;whiteSpace=wrap;html=1;aspect=fixed;fillStyle=dashed;fillColor=#000000;" vertex="1" parent="1">
          <mxGeometry x="850" y="90" width="40" height="40" as="geometry" />
        </mxCell>
        <mxCell id="TbbYldWpjWwdcko0ZbVV-67" value="" style="ellipse;whiteSpace=wrap;html=1;aspect=fixed;fillStyle=dashed;fillColor=#000000;" vertex="1" parent="1">
          <mxGeometry x="900" y="90" width="40" height="40" as="geometry" />
        </mxCell>
        <mxCell id="TbbYldWpjWwdcko0ZbVV-68" value="" style="ellipse;whiteSpace=wrap;html=1;aspect=fixed;" vertex="1" parent="1">
          <mxGeometry x="950" y="40" width="40" height="40" as="geometry" />
        </mxCell>
        <mxCell id="TbbYldWpjWwdcko0ZbVV-69" value="" style="ellipse;whiteSpace=wrap;html=1;aspect=fixed;" vertex="1" parent="1">
          <mxGeometry x="1000" y="40" width="40" height="40" as="geometry" />
        </mxCell>
        <mxCell id="TbbYldWpjWwdcko0ZbVV-70" value="" style="ellipse;whiteSpace=wrap;html=1;aspect=fixed;" vertex="1" parent="1">
          <mxGeometry x="1000" y="90" width="40" height="40" as="geometry" />
        </mxCell>
        <mxCell id="TbbYldWpjWwdcko0ZbVV-73" value="" style="rounded=0;whiteSpace=wrap;html=1;fillColor=none;" vertex="1" parent="1">
          <mxGeometry x="60" y="20" width="1010" height="130" as="geometry" />
        </mxCell>
        <mxCell id="TbbYldWpjWwdcko0ZbVV-74" value="HÖRLURSFÖRSTÄRKARE" style="rounded=0;whiteSpace=wrap;html=1;horizontal=0;fontStyle=1;fontSize=9;fontColor=#FFFFFF;fillColor=#67AB9F;" vertex="1" parent="1">
          <mxGeometry x="10" y="20" width="50" height="130" as="geometry" />
        </mxCell>
        <mxCell id="TbbYldWpjWwdcko0ZbVV-76" value="&lt;div&gt;MIKROFONER&lt;/div&gt;" style="rounded=0;whiteSpace=wrap;html=1;horizontal=0;fontStyle=1;fontSize=9;fontColor=#FFFFFF;fillColor=#67AB9F;" vertex="1" parent="1">
          <mxGeometry x="10" y="160" width="50" height="130" as="geometry" />
        </mxCell>
      </root>
    </mxGraphModel>
  </diagram>
</mxfile>
